# Blender v2.79 (sub 0) OBJ File: 'baseCar_merged.blend'
# www.blender.org
mtllib baseWheel.mtl
o Wheel_Cube.001
v -0.124974 0.000000 -0.333264
v 0.124974 0.000000 -0.257776
v -0.124974 -0.127535 -0.307896
v 0.124974 -0.098647 -0.238154
v -0.124974 -0.235654 -0.235654
v 0.124974 -0.182275 -0.182275
v -0.124974 -0.307896 -0.127535
v 0.124974 -0.238154 -0.098647
v -0.124974 -0.333264 -0.000000
v 0.124974 -0.257776 -0.000000
v -0.124974 -0.307896 0.127535
v 0.124974 -0.238154 0.098647
v -0.124974 -0.235654 0.235654
v 0.124974 -0.182275 0.182275
v -0.124974 -0.127535 0.307896
v 0.124974 -0.098647 0.238154
v -0.124974 -0.000000 0.333264
v 0.124974 -0.000000 0.257776
v -0.124974 0.127535 0.307896
v 0.124974 0.098647 0.238154
v -0.124974 0.235653 0.235654
v 0.124974 0.182275 0.182275
v -0.124974 0.307896 0.127535
v 0.124974 0.238154 0.098647
v -0.124974 0.333264 -0.000000
v 0.124974 0.257776 -0.000000
v -0.124974 0.307896 -0.127535
v 0.124974 0.238154 -0.098647
v -0.124974 0.235653 -0.235654
v 0.124974 0.182275 -0.182275
v -0.124974 0.127535 -0.307896
v 0.124974 0.098647 -0.238154
v 0.124974 -0.127535 -0.307896
v 0.124974 0.000000 -0.333264
v 0.124974 -0.235654 -0.235654
v 0.124974 -0.307896 -0.127535
v 0.124974 -0.333264 -0.000000
v 0.124974 -0.307896 0.127535
v 0.124974 -0.235654 0.235654
v 0.124974 -0.127535 0.307896
v 0.124974 -0.000000 0.333264
v 0.124974 0.127535 0.307896
v 0.124974 0.235653 0.235654
v 0.124974 0.307896 0.127535
v 0.124974 0.333264 -0.000000
v 0.124974 0.307896 -0.127535
v 0.124974 0.235653 -0.235654
v 0.124974 0.127535 -0.307896
v 0.027111 -0.098647 -0.238154
v 0.027111 0.000000 -0.257776
v 0.027111 -0.182275 -0.182275
v 0.027111 -0.238154 -0.098647
v 0.027111 -0.257776 -0.000000
v 0.027111 -0.238154 0.098647
v 0.027111 -0.182275 0.182275
v 0.027111 -0.098647 0.238154
v 0.027111 -0.000000 0.257776
v 0.027111 0.098647 0.238154
v 0.027111 0.182275 0.182275
v 0.027111 0.238154 0.098647
v 0.027111 0.257776 -0.000000
v 0.027111 0.238154 -0.098647
v 0.027111 0.182275 -0.182275
v 0.027111 0.098647 -0.238154
v 0.106891 -0.051367 -0.124010
v 0.106891 0.000000 -0.134228
v 0.106891 -0.094913 -0.094913
v 0.106891 -0.124010 -0.051367
v 0.106891 -0.134228 0.000000
v 0.106891 -0.124010 0.051367
v 0.106891 -0.094913 0.094913
v 0.106891 -0.051367 0.124010
v 0.106891 -0.000000 0.134228
v 0.106891 0.051367 0.124010
v 0.106891 0.094913 0.094913
v 0.106891 0.124010 0.051367
v 0.106891 0.134228 0.000000
v 0.106891 0.124010 -0.051367
v 0.106891 0.094913 -0.094913
v 0.106891 0.051367 -0.124010
v -0.018496 -0.051367 -0.124010
v -0.018496 0.000000 -0.134228
v -0.018496 -0.094913 -0.094913
v -0.018496 -0.124010 -0.051367
v -0.018496 -0.134228 0.000000
v -0.018496 -0.124010 0.051367
v -0.018496 -0.094913 0.094913
v -0.018496 -0.051367 0.124010
v -0.018496 -0.000000 0.134228
v -0.018496 0.051367 0.124010
v -0.018496 0.094913 0.094913
v -0.018496 0.124010 0.051367
v -0.018496 0.134228 0.000000
v -0.018496 0.124010 -0.051367
v -0.018496 0.094913 -0.094913
v -0.018496 0.051367 -0.124010
vt 0.792973 0.072987
vt 0.932773 0.072987
vt 0.932773 0.212787
vt 0.792973 0.212787
vt 0.792973 0.072987
vt 0.932773 0.072987
vt 0.932773 0.212787
vt 0.792973 0.212787
vt 0.792973 0.072987
vt 0.932773 0.072987
vt 0.932773 0.212787
vt 0.792973 0.212787
vt 0.792973 0.072987
vt 0.932773 0.072987
vt 0.932773 0.212787
vt 0.792973 0.212787
vt 0.792973 0.072987
vt 0.932773 0.072987
vt 0.932773 0.212787
vt 0.792973 0.212787
vt 0.792973 0.072987
vt 0.932773 0.072987
vt 0.932773 0.212787
vt 0.792973 0.212787
vt 0.792973 0.072987
vt 0.932773 0.072987
vt 0.932773 0.212787
vt 0.792973 0.212787
vt 0.792973 0.072987
vt 0.932773 0.072987
vt 0.932773 0.212787
vt 0.792973 0.212787
vt 0.792973 0.072987
vt 0.932773 0.072987
vt 0.932773 0.212787
vt 0.792973 0.212787
vt 0.792973 0.072987
vt 0.932773 0.072987
vt 0.932773 0.212787
vt 0.792973 0.212787
vt 0.792973 0.072987
vt 0.932773 0.072987
vt 0.932773 0.212787
vt 0.792973 0.212787
vt 0.792973 0.072987
vt 0.932773 0.072987
vt 0.932773 0.212787
vt 0.792973 0.212787
vt 0.792973 0.072987
vt 0.932773 0.072987
vt 0.932773 0.212787
vt 0.792973 0.212787
vt 0.792973 0.072987
vt 0.932773 0.072987
vt 0.932773 0.212787
vt 0.792973 0.212787
vt 0.792973 0.072987
vt 0.932773 0.072987
vt 0.932773 0.212787
vt 0.792973 0.212787
vt 0.792973 0.072987
vt 0.932773 0.072987
vt 0.932773 0.212787
vt 0.792973 0.212787
vt 0.792973 0.072987
vt 0.932773 0.072987
vt 0.932773 0.212787
vt 0.792973 0.212787
vt 0.862873 0.212787
vt 0.889623 0.207466
vt 0.912300 0.192314
vt 0.927452 0.169636
vt 0.932773 0.142887
vt 0.927452 0.116137
vt 0.912300 0.093460
vt 0.889623 0.078307
vt 0.862873 0.072987
vt 0.836123 0.078307
vt 0.813446 0.093460
vt 0.798294 0.116137
vt 0.792973 0.142887
vt 0.798294 0.169636
vt 0.813446 0.192314
vt 0.836123 0.207466
vt 0.792973 0.072987
vt 0.932773 0.072987
vt 0.792973 0.212787
vt 0.792973 0.072987
vt 0.932773 0.072987
vt 0.792973 0.212787
vt 0.792973 0.072987
vt 0.932773 0.072987
vt 0.792973 0.212787
vt 0.792973 0.072987
vt 0.932773 0.072987
vt 0.792973 0.212787
vt 0.792973 0.072987
vt 0.932773 0.072987
vt 0.792973 0.212787
vt 0.792973 0.072987
vt 0.932773 0.072987
vt 0.792973 0.212787
vt 0.792973 0.072987
vt 0.932773 0.072987
vt 0.792973 0.212787
vt 0.792973 0.072987
vt 0.792973 0.212787
vt 0.792973 0.072987
vt 0.932773 0.072987
vt 0.792973 0.212787
vt 0.932773 0.072987
vt 0.792973 0.212787
vt 0.792973 0.072987
vt 0.932773 0.072987
vt 0.792973 0.212787
vt 0.792973 0.072987
vt 0.932773 0.072987
vt 0.792973 0.212787
vt 0.792973 0.072987
vt 0.932773 0.072987
vt 0.792973 0.212787
vt 0.792973 0.072987
vt 0.932773 0.072987
vt 0.792973 0.212787
vt 0.792973 0.072987
vt 0.932773 0.072987
vt 0.792973 0.212787
vt 0.792973 0.072987
vt 0.932773 0.072987
vt 0.792973 0.212787
vt 0.862873 0.212787
vt 0.889623 0.207466
vt 0.912300 0.192314
vt 0.927452 0.169636
vt 0.932773 0.142887
vt 0.927452 0.116137
vt 0.912300 0.093460
vt 0.889623 0.078307
vt 0.862873 0.072987
vt 0.836123 0.078307
vt 0.813446 0.093460
vt 0.798294 0.116137
vt 0.792973 0.142887
vt 0.798294 0.169636
vt 0.813446 0.192314
vt 0.836123 0.207466
vt 0.932773 0.212787
vt 0.792973 0.212787
vt 0.932773 0.212787
vt 0.792973 0.212787
vt 0.932773 0.212787
vt 0.792973 0.212787
vt 0.932773 0.212787
vt 0.792973 0.212787
vt 0.932773 0.212787
vt 0.792973 0.212787
vt 0.932773 0.212787
vt 0.792973 0.212787
vt 0.932773 0.212787
vt 0.792973 0.212787
vt 0.932773 0.212787
vt 0.792973 0.212787
vt 0.932773 0.212787
vt 0.792973 0.212787
vt 0.932773 0.212787
vt 0.792973 0.212787
vt 0.932773 0.212787
vt 0.792973 0.212787
vt 0.932773 0.212787
vt 0.792973 0.212787
vt 0.932773 0.212787
vt 0.792973 0.212787
vt 0.932773 0.212787
vt 0.792973 0.212787
vt 0.932773 0.212787
vt 0.792973 0.212787
vt 0.886507 0.136501
vt 0.886885 0.146770
vt 0.883365 0.156416
vt 0.876486 0.163984
vt 0.867608 0.168441
vt 0.857831 0.168974
vt 0.848675 0.165511
vt 0.841503 0.158625
vt 0.837510 0.149349
vt 0.837369 0.139071
vt 0.840791 0.129345
vt 0.847562 0.121733
vt 0.856367 0.117299
vt 0.866147 0.116806
vt 0.875345 0.120281
vt 0.882515 0.127190
vt 0.848150 0.212773
vt 0.822693 0.202110
vt 0.848203 0.073114
vt 0.875829 0.073001
vt 0.875786 0.212693
vt 0.822781 0.083950
vt 0.901255 0.201888
vt 0.803454 0.103708
vt 0.920671 0.182155
vt 0.793046 0.129300
vt 0.931156 0.128852
vt 0.931156 0.156524
vt 0.792987 0.156883
vt 0.920717 0.103280
vt 0.803342 0.182447
vt 0.901315 0.083632
vn 0.0000 -0.1951 -0.9808
vn 0.0000 -0.5556 -0.8315
vn 0.0000 -0.8315 -0.5556
vn 0.0000 -0.9808 -0.1951
vn 0.0000 -0.9808 0.1951
vn 0.0000 -0.8315 0.5556
vn 0.0000 -0.5556 0.8315
vn 0.0000 -0.1951 0.9808
vn 0.0000 0.1951 0.9808
vn 0.0000 0.5556 0.8315
vn 0.0000 0.8315 0.5556
vn 0.0000 0.9808 0.1951
vn 0.0000 0.9808 -0.1951
vn 0.0000 0.8315 -0.5556
vn 0.0000 0.5556 -0.8315
vn 0.0000 0.1951 -0.9808
vn -1.0000 0.0000 0.0000
vn 1.0000 0.0000 0.0000
usemtl Material
s off
f 1/1/1 34/2/1 33/3/1 3/4/1
f 3/5/2 33/6/2 35/7/2 5/8/2
f 5/9/3 35/10/3 36/11/3 7/12/3
f 7/13/4 36/14/4 37/15/4 9/16/4
f 9/17/5 37/18/5 38/19/5 11/20/5
f 11/21/6 38/22/6 39/23/6 13/24/6
f 13/25/7 39/26/7 40/27/7 15/28/7
f 15/29/8 40/30/8 41/31/8 17/32/8
f 17/33/9 41/34/9 42/35/9 19/36/9
f 19/37/10 42/38/10 43/39/10 21/40/10
f 21/41/11 43/42/11 44/43/11 23/44/11
f 23/45/12 44/46/12 45/47/12 25/48/12
f 25/49/13 45/50/13 46/51/13 27/52/13
f 27/53/14 46/54/14 47/55/14 29/56/14
f 20/57/1 18/58/1 57/59/1 58/60/1
f 29/61/15 47/62/15 48/63/15 31/64/15
f 31/65/16 48/66/16 34/67/16 1/68/16
f 1/69/17 3/70/17 5/71/17 7/72/17 9/73/17 11/74/17 13/75/17 15/76/17 17/77/17 19/78/17 21/79/17 23/80/17 25/81/17 27/82/17 29/83/17 31/84/17
f 2/85/18 4/86/18 33/3/18 34/87/18
f 4/88/18 6/89/18 35/7/18 33/90/18
f 6/91/18 8/92/18 36/11/18 35/93/18
f 8/94/18 10/95/18 37/15/18 36/96/18
f 10/97/18 12/98/18 38/19/18 37/99/18
f 12/100/18 14/101/18 39/23/18 38/102/18
f 14/103/18 16/104/18 40/27/18 39/105/18
f 16/106/18 18/58/18 41/31/18 40/107/18
f 18/108/18 20/109/18 42/35/18 41/110/18
f 20/57/18 22/111/18 43/39/18 42/112/18
f 22/113/18 24/114/18 44/43/18 43/115/18
f 24/116/18 26/117/18 45/47/18 44/118/18
f 26/119/18 28/120/18 46/51/18 45/121/18
f 28/122/18 30/123/18 47/55/18 46/124/18
f 30/125/18 32/126/18 48/63/18 47/127/18
f 32/128/18 2/129/18 34/67/18 48/130/18
f 49/131/18 50/132/18 64/133/18 63/134/18 62/135/18 61/136/18 60/137/18 59/138/18 58/139/18 57/140/18 56/141/18 55/142/18 54/143/18 53/144/18 52/145/18 51/146/18
f 6/91/10 4/86/10 49/147/10 51/148/10
f 22/113/2 20/109/2 58/149/2 59/150/2
f 8/94/11 6/89/11 51/151/11 52/152/11
f 24/116/3 22/111/3 59/153/3 60/154/3
f 10/97/12 8/92/12 52/155/12 53/156/12
f 26/119/4 24/114/4 60/157/4 61/158/4
f 12/100/13 10/95/13 53/159/13 54/160/13
f 28/122/5 26/117/5 61/161/5 62/162/5
f 14/103/14 12/98/14 54/163/14 55/164/14
f 30/125/6 28/120/6 62/165/6 63/166/6
f 16/106/15 14/101/15 55/167/15 56/168/15
f 32/128/7 30/123/7 63/169/7 64/170/7
f 18/108/16 16/104/16 56/171/16 57/172/16
f 4/88/9 2/129/9 50/173/9 49/174/9
f 2/85/8 32/126/8 64/175/8 50/176/8
f 65/177/18 66/178/18 80/179/18 79/180/18 78/181/18 77/182/18 76/183/18 75/184/18 74/185/18 73/186/18 72/187/18 71/188/18 70/189/18 69/190/18 68/191/18 67/192/18
f 77/182/12 93/193/12 92/194/12 76/183/12
f 70/189/5 86/195/5 85/196/5 69/190/5
f 78/181/13 94/197/13 93/193/13 77/182/13
f 71/188/6 87/198/6 86/195/6 70/189/6
f 79/180/14 95/199/14 94/197/14 78/181/14
f 72/187/7 88/200/7 87/198/7 71/188/7
f 80/179/15 96/201/15 95/199/15 79/180/15
f 73/186/8 89/202/8 88/200/8 72/187/8
f 65/177/1 81/203/1 82/204/1 66/178/1
f 66/178/16 82/204/16 96/201/16 80/179/16
f 74/185/9 90/205/9 89/202/9 73/186/9
f 67/192/2 83/206/2 81/203/2 65/177/2
f 75/184/10 91/207/10 90/205/10 74/185/10
f 68/191/3 84/208/3 83/206/3 67/192/3
f 76/183/11 92/194/11 91/207/11 75/184/11
f 69/190/4 85/196/4 84/208/4 68/191/4
